<svg width="30" height="30" viewBox="0 0 30 30" fill="none" xmlns="http://www.w3.org/2000/svg">
<g clip-path="url(#clip0_3488_2493)">
<path d="M29.6969 15C29.6969 6.71573 23.1847 0 15.1515 0C7.11824 0 0.606018 6.71573 0.606018 15C0.606018 23.2843 7.11824 30 15.1515 30C23.1847 30 29.6969 23.2843 29.6969 15Z" fill="#4B69B1"/>
<path d="M16.4214 23.4349V15.7511H18.935L19.3086 12.7427H16.4214V10.8264C16.4214 9.95831 16.6559 9.36391 17.8641 9.36391H19.395V6.68172C18.6502 6.5994 17.9014 6.55965 17.1523 6.56266C14.9304 6.56266 13.405 7.96141 13.405 10.5292V12.7371H10.9077V15.7455H13.4104V23.4349H16.4214Z" fill="white"/>
</g>
<defs>
<clipPath id="clip0_3488_2493">
<rect width="30" height="30" fill="white"/>
</clipPath>
</defs>
</svg>
