<svg width="30" height="30" viewBox="0 0 30 30" fill="none" xmlns="http://www.w3.org/2000/svg">
<g clip-path="url(#clip0_3488_2490)">
<path d="M29.6969 15C29.6969 6.71573 23.1847 0 15.1515 0C7.11824 0 0.606018 6.71573 0.606018 15C0.606018 23.2843 7.11824 30 15.1515 30C23.1847 30 29.6969 23.2843 29.6969 15Z" fill="url(#paint0_linear_3488_2490)"/>
<path fill-rule="evenodd" clip-rule="evenodd" d="M11.7784 6.61312C12.6508 6.57171 12.929 6.5625 15.1515 6.5625C17.374 6.5625 17.6522 6.57247 18.5239 6.61312C19.3956 6.65377 19.9906 6.79721 20.5113 7.00508C21.0566 7.21756 21.5512 7.54969 21.9603 7.97923C22.3767 8.40034 22.6981 8.90966 22.9034 9.47269C23.1057 10.0096 23.244 10.6233 23.2842 11.5207C23.3244 12.422 23.3333 12.7088 23.3333 15C23.3333 17.2919 23.3236 17.5788 23.2842 18.4786C23.2448 19.376 23.1057 19.9897 22.9034 20.5266C22.6981 21.0896 22.3763 21.5998 21.9603 22.0215C21.5512 22.4511 21.0566 22.7825 20.5113 22.9942C19.9906 23.2027 19.3956 23.3454 18.5254 23.3869C17.6522 23.4283 17.374 23.4375 15.1515 23.4375C12.929 23.4375 12.6508 23.4276 11.7784 23.3869C10.9081 23.3462 10.3131 23.2027 9.79237 22.9942C9.24637 22.7824 8.75167 22.4505 8.34272 22.0215C7.92647 21.6002 7.60436 21.0903 7.39884 20.5273C7.19727 19.9904 7.05892 19.3767 7.01876 18.4793C6.97858 17.578 6.96967 17.2912 6.96967 15C6.96967 12.7081 6.97933 12.4212 7.01876 11.5222C7.05817 10.6233 7.19727 10.0096 7.39884 9.47269C7.60467 8.90972 7.92702 8.39981 8.34347 7.97846C8.75184 7.5493 9.246 7.21713 9.79164 7.00508C10.3123 6.79721 10.9081 6.65454 11.7784 6.61312ZM18.4576 8.13187C17.5949 8.09122 17.336 8.08279 15.1515 8.08279C12.9669 8.08279 12.7081 8.09122 11.8453 8.13187C11.0472 8.16946 10.6143 8.30677 10.3257 8.42258C9.94409 8.576 9.67118 8.75779 9.38482 9.0531C9.11337 9.32543 8.90442 9.657 8.77338 10.0234C8.66107 10.321 8.52793 10.7675 8.49148 11.5905C8.45206 12.4803 8.44388 12.7472 8.44388 15C8.44388 17.2528 8.45206 17.5197 8.49148 18.4095C8.52793 19.2325 8.66107 19.679 8.77338 19.9766C8.90429 20.3424 9.11328 20.6746 9.38482 20.9469C9.64882 21.2269 9.97091 21.4424 10.3257 21.5774C10.6143 21.6933 11.0472 21.8305 11.8453 21.8681C12.7081 21.9088 12.9662 21.9173 15.1515 21.9173C17.3367 21.9173 17.5949 21.9088 18.4576 21.8681C19.2558 21.8305 19.6886 21.6933 19.9773 21.5774C20.3588 21.424 20.6318 21.2422 20.9182 20.9469C21.1896 20.6746 21.3986 20.3424 21.5296 19.9766C21.6419 19.679 21.775 19.2325 21.8115 18.4095C21.8509 17.5197 21.8591 17.2528 21.8591 15C21.8591 12.7472 21.8509 12.4803 21.8115 11.5905C21.775 10.7675 21.6419 10.321 21.5296 10.0234C21.3808 9.62991 21.2045 9.34841 20.9182 9.0531C20.6541 8.77318 20.3326 8.55774 19.9773 8.42258C19.6886 8.30677 19.2558 8.16946 18.4576 8.13187ZM14.1065 17.6011C14.6901 17.8516 15.3399 17.8854 15.9451 17.6967C16.5502 17.508 17.073 17.1085 17.4243 16.5665C17.7755 16.0244 17.9334 15.3734 17.8708 14.7247C17.8084 14.076 17.5295 13.4697 17.0816 13.0095C16.7962 12.7153 16.4511 12.4901 16.0711 12.35C15.6911 12.2098 15.2856 12.1583 14.8841 12.1992C14.4825 12.2401 14.0946 12.3723 13.7485 12.5862C13.4024 12.8002 13.1065 13.0906 12.8824 13.4366C12.6582 13.7827 12.5111 14.1757 12.4518 14.5873C12.3926 14.999 12.4225 15.4191 12.5396 15.8173C12.6567 16.2156 12.8579 16.5821 13.1289 16.8906C13.3998 17.199 13.7336 17.4416 14.1065 17.6011ZM12.1777 11.9333C12.5683 11.5306 13.0319 11.2112 13.5421 10.9932C14.0524 10.7752 14.5992 10.6631 15.1515 10.6631C15.7037 10.6631 16.2506 10.7752 16.7608 10.9932C17.2711 11.2112 17.7347 11.5306 18.1252 11.9333C18.5157 12.3361 18.8255 12.8141 19.0368 13.3403C19.2482 13.8666 19.3569 14.4305 19.3569 15C19.3569 15.5695 19.2482 16.1334 19.0368 16.6597C18.8255 17.1859 18.5157 17.6639 18.1252 18.0667C17.3365 18.8799 16.2668 19.3369 15.1515 19.3369C14.0361 19.3369 12.9665 18.8799 12.1777 18.0667C11.3891 17.2533 10.946 16.1502 10.946 15C10.946 13.8498 11.3891 12.7467 12.1777 11.9333ZM20.2896 11.309C20.3865 11.2148 20.4639 11.1016 20.5175 10.9761C20.5711 10.8505 20.5997 10.7151 20.6016 10.5779C20.6035 10.4408 20.5788 10.3045 20.5288 10.1774C20.4787 10.0503 20.4045 9.93478 20.3105 9.83784C20.2164 9.74081 20.1044 9.66422 19.9811 9.61266C19.8578 9.56109 19.7258 9.53559 19.5927 9.53756C19.4597 9.53953 19.3285 9.56906 19.2067 9.62428C19.0849 9.67959 18.9752 9.75947 18.8839 9.85922C18.7064 10.0534 18.6092 10.3112 18.6129 10.5779C18.6166 10.8447 18.7211 11.0994 18.9041 11.2882C19.087 11.4768 19.3341 11.5845 19.5927 11.5884C19.8515 11.5923 20.1015 11.4921 20.2896 11.309Z" fill="white"/>
</g>
<defs>
<linearGradient id="paint0_linear_3488_2490" x1="6.06057" y1="0" x2="26.0605" y2="0" gradientUnits="userSpaceOnUse">
<stop stop-color="#F69850"/>
<stop offset="0.276011" stop-color="#DB2D4E"/>
<stop offset="1" stop-color="#734E9C"/>
</linearGradient>
<clipPath id="clip0_3488_2490">
<rect width="30" height="30" fill="white"/>
</clipPath>
</defs>
</svg>
