<svg width="503" height="24" viewBox="0 0 503 24" fill="none" xmlns="http://www.w3.org/2000/svg">
<g clip-path="url(#clip0_3488_2546)">
<path d="M500.333 0.893188H455C454.647 0.893188 454.307 1.03366 454.057 1.28371C453.807 1.53376 453.667 1.87291 453.667 2.22652V21.7732C453.667 22.1268 453.807 22.466 454.057 22.716C454.307 22.9661 454.647 23.1065 455 23.1065H500.333C500.687 23.1065 501.027 22.9661 501.276 22.716C501.527 22.466 501.667 22.1268 501.667 21.7732V2.22652C501.667 1.87291 501.527 1.53376 501.276 1.28371C501.027 1.03366 500.687 0.893188 500.333 0.893188Z" fill="white" stroke="#E0E0E0" stroke-width="0.67"/>
<path d="M474 9.07999H472.24V10.4133H474.293V11H471.507V6.66665H474.267V7.26665H472.24V8.45332H474V9.07999ZM477.28 9.98665H475.627L475.28 10.9733H474.52L476.133 6.66665H476.787L478.4 10.9333H477.667L477.28 9.98665ZM475.84 9.33332H477.08L476.453 7.55999L475.84 9.33332ZM481.173 9.82665C481.177 9.74275 481.16 9.65916 481.125 9.58271C481.091 9.50624 481.039 9.43907 480.973 9.38665C480.753 9.25077 480.516 9.14747 480.267 9.07999C479.975 9.00611 479.696 8.88927 479.44 8.73332C479.268 8.64192 479.124 8.50567 479.023 8.33901C478.921 8.17236 478.868 7.9815 478.867 7.78666C478.863 7.62184 478.899 7.45852 478.971 7.31015C479.043 7.16177 479.148 7.03261 479.28 6.93332C479.591 6.72927 479.963 6.63539 480.333 6.66665C480.604 6.66144 480.872 6.71608 481.12 6.82665C481.348 6.93081 481.541 7.09719 481.68 7.30665C481.813 7.50317 481.883 7.73587 481.88 7.97332H481.133C481.14 7.87603 481.125 7.77835 481.088 7.68807C481.051 7.59779 480.993 7.5174 480.92 7.45332C480.839 7.38162 480.743 7.32696 480.64 7.29261C480.537 7.25827 480.428 7.24491 480.32 7.25332C480.12 7.24155 479.923 7.29797 479.76 7.41332C479.695 7.46573 479.641 7.53291 479.607 7.60937C479.572 7.68583 479.556 7.76941 479.56 7.85332C479.564 7.92969 479.585 8.00416 479.623 8.07112C479.659 8.13809 479.711 8.19583 479.773 8.23999C479.997 8.37707 480.239 8.4804 480.493 8.54665C480.773 8.62189 481.043 8.73399 481.293 8.87999C481.449 9.00148 481.577 9.15635 481.667 9.33332C481.767 9.50757 481.817 9.70577 481.813 9.90665C481.817 10.0698 481.783 10.2316 481.711 10.378C481.639 10.5244 481.532 10.651 481.4 10.7467C481.079 10.9764 480.688 11.0893 480.293 11.0667C480 11.071 479.708 11.0118 479.44 10.8933C479.2 10.7906 478.992 10.6247 478.84 10.4133C478.695 10.2118 478.62 9.96823 478.627 9.71999H479.36C479.355 9.82544 479.373 9.93072 479.415 10.0278C479.456 10.1248 479.52 10.2111 479.6 10.28C479.801 10.4242 480.045 10.4948 480.293 10.48C480.501 10.4936 480.708 10.4373 480.88 10.32C480.953 10.2719 481.013 10.2067 481.055 10.1299C481.096 10.0532 481.119 9.96739 481.12 9.87999L481.173 9.82665ZM483.96 8.67999L484.893 6.66665H485.667L484.24 9.33332V10.9733H483.493V9.41332L482.067 6.74665H482.88L483.96 8.67999ZM490.213 9.02665H488.453V10.36H490.507V10.9467H487.667V6.66665H490.44V7.26665H488.4V8.45332H490.16L490.213 9.02665ZM492.013 6.66665L493.253 9.94665L494.48 6.66665H495.44V10.9333H494.693V9.57332L494.773 7.69332L493.507 10.9733H492.973L491.72 7.69332L491.8 9.57332V10.9733H491V6.66665H492.013ZM497.093 10.9333H496.333V6.66665H497.067L497.093 10.9333ZM474.907 15.5866C474.917 15.9624 474.844 16.3357 474.693 16.68C474.564 16.9826 474.345 17.2385 474.067 17.4133C473.789 17.5809 473.471 17.6685 473.147 17.6666C472.819 17.6669 472.496 17.5794 472.213 17.4133C471.941 17.2368 471.724 16.9873 471.587 16.6933C471.437 16.353 471.365 15.9845 471.373 15.6133V15.3733C471.364 14.9934 471.437 14.6161 471.587 14.2666C471.72 13.9666 471.937 13.7118 472.213 13.5333C472.488 13.3596 472.808 13.2714 473.133 13.28C473.463 13.2719 473.787 13.36 474.067 13.5333C474.34 13.7041 474.555 13.9557 474.68 14.2533C474.836 14.5964 474.913 14.9698 474.907 15.3466V15.5866ZM474.173 15.36C474.199 14.9793 474.1 14.6005 473.893 14.28C473.811 14.1556 473.697 14.0545 473.564 13.9868C473.431 13.919 473.283 13.8868 473.133 13.8933C472.987 13.8904 472.841 13.9242 472.711 13.9917C472.58 14.0593 472.469 14.1584 472.387 14.28C472.187 14.5937 472.088 14.9617 472.107 15.3333V15.5866C472.083 15.9672 472.181 16.3454 472.387 16.6666C472.475 16.7853 472.589 16.8816 472.721 16.948C472.853 17.0144 472.999 17.0489 473.147 17.0489C473.295 17.0489 473.44 17.0144 473.572 16.948C473.704 16.8816 473.819 16.7853 473.907 16.6666C474.103 16.337 474.196 15.9562 474.173 15.5733V15.36ZM476.387 16.0266V17.6H475.64V13.3333H477.28C477.691 13.3149 478.093 13.4477 478.413 13.7066C478.549 13.8325 478.657 13.9852 478.731 14.155C478.804 14.3249 478.841 14.5082 478.84 14.6933C478.849 14.8762 478.816 15.0588 478.745 15.2274C478.673 15.396 478.564 15.5461 478.427 15.6666C478.096 15.9237 477.684 16.0517 477.267 16.0266H476.387ZM476.387 15.4266H477.28C477.496 15.4417 477.711 15.375 477.88 15.24C477.953 15.1732 478.011 15.0905 478.048 14.9981C478.085 14.9056 478.1 14.806 478.093 14.7066C478.099 14.6036 478.083 14.5004 478.047 14.4038C478.009 14.3074 477.953 14.2197 477.88 14.1466C477.716 14.0073 477.508 13.9316 477.293 13.9333H476.333L476.387 15.4266ZM482.56 13.9333H481.227V17.6H480.493V13.9733H479.16V13.3333H482.533L482.56 13.9333ZM483.893 17.6H483.16V13.3333H483.893V17.6ZM488.213 15.5866C488.224 15.9624 488.151 16.3357 488 16.68C487.867 16.98 487.648 17.2348 487.373 17.4133C487.096 17.5809 486.777 17.6685 486.453 17.6666C486.125 17.6669 485.803 17.5794 485.52 17.4133C485.248 17.2368 485.031 16.9873 484.893 16.6933C484.744 16.353 484.672 15.9845 484.68 15.6133V15.3733C484.671 14.9934 484.744 14.6161 484.893 14.2666C485.027 13.9666 485.244 13.7118 485.52 13.5333C485.795 13.3596 486.115 13.2714 486.44 13.28C486.768 13.2734 487.092 13.3613 487.373 13.5333C487.647 13.7041 487.861 13.9557 487.987 14.2533C488.143 14.5964 488.22 14.9698 488.213 15.3466V15.5866ZM487.467 15.36C487.496 14.9808 487.403 14.6021 487.2 14.28C487.117 14.1556 487.004 14.0545 486.871 13.9868C486.737 13.919 486.589 13.8868 486.44 13.8933C486.293 13.8904 486.148 13.9242 486.017 13.9917C485.887 14.0593 485.776 14.1584 485.693 14.28C485.493 14.5937 485.395 14.9617 485.413 15.3333V15.5866C485.389 15.9672 485.488 16.3454 485.693 16.6666C485.776 16.7912 485.889 16.8922 486.023 16.96C486.156 17.0277 486.304 17.0598 486.453 17.0533C486.599 17.0602 486.744 17.0296 486.875 16.9642C487.005 16.8988 487.117 16.801 487.2 16.68C487.403 16.353 487.496 15.9701 487.467 15.5866V15.36ZM492.333 17.64H491.6L489.667 14.6666V17.6933H488.92V13.3333H489.667L491.573 16.3733V13.3333H492.333V17.64ZM495.44 16.5466C495.444 16.4628 495.427 16.3792 495.392 16.3028C495.357 16.2262 495.305 16.159 495.24 16.1066C495.02 15.9708 494.783 15.8674 494.533 15.8C494.241 15.7261 493.963 15.6093 493.707 15.4533C493.535 15.362 493.391 15.2257 493.289 15.059C493.188 14.8924 493.135 14.7016 493.133 14.5066C493.129 14.3418 493.165 14.1785 493.237 14.0301C493.309 13.8818 493.415 13.7526 493.547 13.6533C493.86 13.4168 494.248 13.2987 494.64 13.32C494.911 13.3148 495.179 13.3694 495.427 13.48C495.653 13.5804 495.844 13.7478 495.973 13.96C496.112 14.1536 496.183 14.3884 496.173 14.6266H495.44C495.447 14.5293 495.432 14.4317 495.395 14.3414C495.357 14.2512 495.3 14.1708 495.227 14.1066C495.145 14.0349 495.049 13.9804 494.947 13.946C494.844 13.9116 494.735 13.8982 494.627 13.9066C494.427 13.8949 494.229 13.9513 494.067 14.0666C494.001 14.119 493.948 14.1862 493.913 14.2628C493.879 14.3392 493.863 14.4228 493.867 14.5066C493.867 14.5837 493.887 14.6593 493.924 14.7268C493.961 14.7944 494.015 14.8516 494.08 14.8933C494.304 15.0304 494.545 15.1337 494.8 15.2C495.08 15.2752 495.349 15.3873 495.6 15.5333C495.779 15.6433 495.929 15.794 496.04 15.9733C496.14 16.1476 496.191 16.3458 496.187 16.5466C496.188 16.7093 496.152 16.87 496.08 17.0158C496.008 17.1617 495.903 17.2888 495.773 17.3866C495.452 17.6164 495.061 17.7293 494.667 17.7066C494.373 17.7122 494.081 17.653 493.813 17.5333C493.571 17.4357 493.361 17.2688 493.213 17.0533C493.068 16.8518 492.993 16.6082 493 16.36H493.733C493.728 16.4654 493.747 16.5708 493.788 16.6678C493.829 16.7648 493.893 16.851 493.973 16.92C494.173 17.0662 494.419 17.137 494.667 17.12C494.871 17.136 495.073 17.0793 495.24 16.96C495.307 16.914 495.361 16.8521 495.399 16.7801C495.436 16.708 495.455 16.6278 495.453 16.5466H495.44Z" fill="#4E4E4E"/>
<path fill-rule="evenodd" clip-rule="evenodd" d="M466.267 7.78663V6.66663H465.227V7.78663H461.04V6.66663H459.987V7.78663H459.467C459.325 7.79179 459.185 7.82485 459.056 7.88395C458.927 7.94304 458.811 8.027 458.715 8.13103C458.617 8.23505 458.543 8.35709 458.493 8.49017C458.444 8.62327 458.421 8.76477 458.427 8.90663V16.2133C458.42 16.501 458.525 16.7801 458.723 16.9897C458.92 17.1994 459.192 17.3229 459.48 17.3333H466.8C467.088 17.3229 467.36 17.1994 467.557 16.9897C467.753 16.7801 467.86 16.501 467.853 16.2133V8.90663C467.86 8.61887 467.753 8.33988 467.557 8.1302C467.36 7.92052 467.088 7.79707 466.8 7.78663H466.267ZM459.467 16.2133V10.04H466.787V16.2133H459.467Z" fill="#212121"/>
<path d="M461.96 13.1999C462.224 13.1999 462.481 13.1217 462.701 12.9752C462.92 12.8287 463.091 12.6204 463.192 12.3768C463.293 12.1331 463.32 11.8651 463.268 11.6064C463.216 11.3478 463.089 11.1102 462.903 10.9237C462.716 10.7373 462.479 10.6103 462.22 10.5588C461.961 10.5074 461.693 10.5338 461.451 10.6347C461.207 10.7356 460.999 10.9065 460.852 11.1258C460.705 11.345 460.627 11.6028 460.627 11.8665C460.627 12.2202 460.768 12.5593 461.017 12.8093C461.268 13.0594 461.607 13.1999 461.96 13.1999Z" fill="#212121"/>
<path d="M464.053 15.72C464.317 15.72 464.575 15.6418 464.795 15.4953C465.013 15.3488 465.184 15.1405 465.285 14.8969C465.387 14.6533 465.412 14.3852 465.361 14.1265C465.309 13.868 465.183 13.6304 464.996 13.4438C464.809 13.2574 464.572 13.1304 464.313 13.079C464.055 13.0275 463.787 13.0539 463.543 13.1548C463.3 13.2558 463.091 13.4266 462.945 13.646C462.799 13.8652 462.72 14.123 462.72 14.3866C462.72 14.7404 462.86 15.0794 463.111 15.3294C463.36 15.5796 463.7 15.72 464.053 15.72Z" fill="#212121"/>
<path d="M464.013 11.4401L461.813 14.8534" stroke="#212121" stroke-width="0.63" stroke-linecap="square"/>
<path d="M445.227 0.893188H399.893C399.54 0.893188 399.2 1.03366 398.951 1.28371C398.7 1.53376 398.56 1.87291 398.56 2.22652V21.7732C398.56 22.1268 398.7 22.466 398.951 22.716C399.2 22.9661 399.54 23.1065 399.893 23.1065H445.227C445.58 23.1065 445.919 22.9661 446.169 22.716C446.42 22.466 446.56 22.1268 446.56 21.7732V2.22652C446.56 1.87291 446.42 1.53376 446.169 1.28371C445.919 1.03366 445.58 0.893188 445.227 0.893188Z" fill="white" stroke="#E0E0E0" stroke-width="0.67"/>
<path d="M416.96 9.58637C416.935 9.99386 416.753 10.3759 416.453 10.653C416.123 10.9217 415.705 11.0593 415.28 11.0397C414.965 11.0463 414.656 10.9631 414.387 10.7997C414.127 10.6282 413.919 10.3883 413.787 10.1064C413.637 9.78005 413.56 9.4253 413.56 9.06637V8.6797C413.557 8.31326 413.629 7.95016 413.773 7.61304C413.912 7.32277 414.132 7.07893 414.407 6.91094C414.681 6.74296 414.999 6.65801 415.32 6.66637C415.733 6.6478 416.137 6.7859 416.453 7.05304C416.755 7.33425 416.936 7.72117 416.96 8.13304H416.213C416.208 7.88596 416.113 7.64925 415.947 7.46637C415.772 7.3212 415.547 7.24952 415.32 7.26637C415.175 7.25922 415.031 7.28842 414.901 7.3513C414.771 7.4142 414.657 7.50876 414.573 7.62637C414.383 7.9337 414.289 8.2917 414.307 8.65302V9.0397C414.289 9.4077 414.377 9.77297 414.56 10.093C414.639 10.2103 414.747 10.3052 414.872 10.3684C414.999 10.4315 415.139 10.4607 415.28 10.453C415.516 10.4741 415.749 10.4023 415.933 10.253C416.107 10.0791 416.207 9.84528 416.213 9.5997L416.96 9.58637ZM420.013 9.98636H418.36L418.013 10.973H417.24L418.853 6.66637H419.52L421.133 10.933H420.333L420.013 9.98636ZM418.56 9.33304H419.8L419.187 7.5597L418.56 9.33304ZM423.893 9.82637C423.895 9.74289 423.876 9.66026 423.841 9.58426C423.808 9.50826 423.756 9.44072 423.693 9.38637C423.469 9.25062 423.227 9.14737 422.973 9.0797C422.685 9.00882 422.411 8.89174 422.16 8.73304C421.987 8.64228 421.84 8.50653 421.737 8.34C421.633 8.17346 421.577 7.98225 421.573 7.78637C421.569 7.62154 421.605 7.45822 421.677 7.30985C421.749 7.16149 421.855 7.03233 421.987 6.93304C422.288 6.73924 422.643 6.64588 423 6.66637C423.275 6.66136 423.548 6.71593 423.8 6.82637C424.021 6.92894 424.211 7.09037 424.347 7.29304C424.479 7.49508 424.548 7.73162 424.547 7.97304H423.813C423.817 7.87605 423.801 7.77926 423.764 7.68945C423.727 7.59964 423.671 7.51894 423.6 7.45304C423.433 7.31197 423.219 7.24038 423 7.25304C422.8 7.24125 422.603 7.29768 422.44 7.41304C422.373 7.46477 422.319 7.53148 422.281 7.60785C422.244 7.68422 422.225 7.76816 422.227 7.85304C422.231 7.93106 422.252 8.00706 422.292 8.07445C422.332 8.14182 422.387 8.19856 422.453 8.2397C422.673 8.37558 422.911 8.47888 423.16 8.54637C423.44 8.6216 423.709 8.73369 423.96 8.8797C424.148 8.98324 424.304 9.13517 424.413 9.31969C424.507 9.4911 424.553 9.68448 424.547 9.8797C424.552 10.0449 424.517 10.209 424.445 10.3577C424.373 10.5064 424.267 10.6353 424.133 10.733C423.812 10.9627 423.421 11.0757 423.027 11.053C422.733 11.0509 422.444 10.9921 422.173 10.8797C421.936 10.7727 421.729 10.6076 421.573 10.3997C421.428 10.1982 421.353 9.95461 421.36 9.70637H422.107C422.101 9.81182 422.12 9.91709 422.161 10.0141C422.204 10.1112 422.267 10.1975 422.347 10.2664C422.543 10.4106 422.784 10.4814 423.027 10.4664C423.235 10.4822 423.441 10.4256 423.613 10.3064C423.687 10.2623 423.748 10.1997 423.789 10.1249C423.832 10.0501 423.853 9.96556 423.853 9.8797L423.893 9.82637ZM428.667 10.9197H427.933V9.0797H426.013V10.973H425.28V6.66637H426.013V8.49304H427.933V6.66637H428.667V10.9197ZM434.44 8.90637C434.451 9.28209 434.377 9.65546 434.227 9.9997C434.097 10.3023 433.879 10.5582 433.6 10.733C433.321 10.8985 433.004 10.9859 432.68 10.9859C432.356 10.9859 432.039 10.8985 431.76 10.733C431.485 10.5599 431.267 10.3094 431.133 10.013C430.973 9.67148 430.895 9.29689 430.907 8.9197V8.73304C430.897 8.35742 430.971 7.98432 431.12 7.6397C431.253 7.33966 431.471 7.08488 431.747 6.90637C431.952 6.77302 432.184 6.6855 432.427 6.64974C432.669 6.61398 432.916 6.63084 433.151 6.69914C433.387 6.76745 433.604 6.88562 433.789 7.04562C433.976 7.20561 434.124 7.40368 434.227 7.62637C434.371 7.97252 434.444 8.34454 434.44 8.7197V8.90637ZM433.667 8.73304C433.691 8.34825 433.592 7.96581 433.387 7.6397C433.303 7.52052 433.191 7.42402 433.06 7.35886C432.931 7.29369 432.785 7.26192 432.64 7.26637C432.492 7.26205 432.347 7.2938 432.213 7.35886C432.081 7.42392 431.967 7.52032 431.88 7.6397C431.683 7.95926 431.584 8.33081 431.6 8.70637V8.9597C431.576 9.34026 431.675 9.71844 431.88 10.0397C431.965 10.1615 432.079 10.2605 432.212 10.328C432.344 10.3954 432.491 10.4292 432.64 10.4264C432.788 10.4343 432.936 10.4042 433.068 10.3388C433.201 10.2735 433.316 10.1751 433.4 10.053C433.596 9.7234 433.689 9.3426 433.667 8.9597V8.73304ZM438.52 10.973H437.787L435.88 7.9997V10.973H435.147V6.66637H435.88L437.787 9.70637V6.66637H438.52V10.973ZM413.707 17.6397V13.333H415C415.349 13.3316 415.693 13.4188 416 13.5864C416.291 13.7569 416.527 14.0066 416.68 14.3064C416.844 14.633 416.927 14.9944 416.92 15.3597V15.573C416.929 15.9429 416.847 16.3093 416.68 16.6397C416.525 16.943 416.284 17.1937 415.987 17.3597C415.675 17.5233 415.325 17.6058 414.973 17.5997L413.707 17.6397ZM414.44 13.973V17.053H415C415.164 17.0641 415.329 17.0374 415.481 16.975C415.635 16.9126 415.771 16.8162 415.88 16.693C416.109 16.392 416.224 16.0178 416.2 15.6397V15.3997C416.229 15.025 416.125 14.6521 415.907 14.3464C415.8 14.2192 415.664 14.119 415.512 14.0541C415.359 13.9893 415.192 13.9614 415.027 13.973H414.44ZM420.12 15.733H418.36V17.0664H420.413V17.653H417.667V13.333H420.333V13.933H418.307V15.1197H420.067L420.12 15.733ZM421.76 17.0664H423.693V17.653H421.027V13.333H421.773L421.76 17.0664ZM425.04 17.653H424.333V13.333H425.067L425.04 17.653ZM427.453 16.733L428.533 13.3864H429.36L427.813 17.653H427.107L425.573 13.333H426.387L427.453 16.733ZM432.333 15.733H430.573V17.0664H432.627V17.653H429.84V13.333H432.6V13.933H430.573V15.1197H432.333V15.733ZM434.8 15.9997H433.973V17.6397H433.227V13.333H434.733C435.139 13.3103 435.539 13.428 435.867 13.6664C436.001 13.7856 436.108 13.9338 436.177 14.1002C436.247 14.2665 436.277 14.4465 436.267 14.6264C436.269 14.8805 436.2 15.1304 436.067 15.3464C435.92 15.543 435.721 15.6953 435.493 15.7864L436.453 17.5597H435.653L434.8 15.9997ZM433.973 15.3997H434.733C434.945 15.4168 435.156 15.3497 435.32 15.213C435.393 15.1489 435.451 15.0686 435.488 14.9782C435.525 14.888 435.541 14.7904 435.533 14.693C435.54 14.597 435.525 14.5009 435.491 14.4112C435.456 14.3214 435.403 14.2401 435.333 14.173C435.256 14.1028 435.165 14.0488 435.067 14.0144C434.968 13.9801 434.864 13.966 434.76 13.973H433.973V15.3997ZM438.227 15.3997L439.213 13.373H440.027L438.6 16.0397V17.5997H437.853V16.0797L436.427 13.413H437.24L438.227 15.3997Z" fill="#4E4E4E"/>
<path d="M404.933 10.8399L404.693 11.5065H408.147C408.073 11.9075 407.849 12.2652 407.52 12.5065C406.924 12.8818 406.224 13.0592 405.52 13.0132H404.8V13.7732C405.125 13.7716 405.445 13.8643 405.72 14.0399C405.995 14.2439 406.233 14.4916 406.427 14.7732L408.813 17.9999H410.307L407.52 14.4132C407.323 14.1187 407.085 13.8538 406.813 13.6266C407.461 13.5378 408.069 13.2595 408.56 12.8265C408.937 12.4782 409.175 12.004 409.227 11.4932H410.76L410.973 10.8265H409.24C409.215 10.4988 409.12 10.1801 408.964 9.89076C408.808 9.60146 408.593 9.34797 408.333 9.14653H410.72L410.96 8.47986H404.88L404.667 9.14653H405.88C406.472 9.10865 407.057 9.29418 407.52 9.66652C407.851 9.97208 408.056 10.3908 408.093 10.8399H404.933Z" fill="#212121"/>
<path d="M390.107 0.893188H344.773C344.42 0.893188 344.081 1.03366 343.831 1.28371C343.58 1.53376 343.44 1.87291 343.44 2.22652V21.7732C343.44 22.1268 343.58 22.466 343.831 22.716C344.081 22.9661 344.42 23.1065 344.773 23.1065H390.107C390.46 23.1065 390.8 22.9661 391.049 22.716C391.3 22.466 391.44 22.1268 391.44 21.7732V2.22652C391.44 1.87291 391.3 1.53376 391.049 1.28371C390.8 1.03366 390.46 0.893188 390.107 0.893188Z" fill="white" stroke="#E0E0E0" stroke-width="0.67"/>
<path d="M364.147 10.6664H363.413L361.507 7.63978V10.6664H360.773V6.39978H361.507L363.413 9.43978V6.39978H364.147V10.6664ZM367.52 8.75978H365.773V10.0931H367.813V10.6664H365.027V6.39978H367.8V6.99978H365.773V8.17311H367.52V8.75978ZM371.52 6.99978H370.187V10.6664H369.453V6.99978H368.12V6.39978H371.507L371.52 6.99978ZM360.773 17.3331V13.0664H362.227C362.619 13.0382 363.008 13.1414 363.333 13.3598C363.461 13.4631 363.563 13.596 363.627 13.747C363.692 13.898 363.72 14.0626 363.707 14.2264C363.707 14.4119 363.651 14.5932 363.547 14.7464C363.437 14.9108 363.279 15.0367 363.093 15.1064C363.304 15.1612 363.488 15.2887 363.613 15.4664C363.751 15.6458 363.821 15.8674 363.813 16.0931C363.824 16.2658 363.793 16.4384 363.727 16.5979C363.66 16.7574 363.557 16.8995 363.427 17.0131C363.107 17.2468 362.715 17.3602 362.32 17.3331H360.773ZM361.507 15.4131V16.7464H362.333C362.531 16.7524 362.723 16.6912 362.88 16.5731C362.945 16.512 362.995 16.4372 363.028 16.3542C363.06 16.2711 363.073 16.1819 363.067 16.0931C363.083 16.0015 363.076 15.9074 363.049 15.8186C363.021 15.7298 362.973 15.6487 362.908 15.5823C362.843 15.5159 362.763 15.4659 362.675 15.4366C362.587 15.4071 362.492 15.3991 362.4 15.4131H361.507ZM361.507 14.8664H362.24C362.431 14.8764 362.62 14.8199 362.773 14.7064C362.839 14.654 362.892 14.5868 362.927 14.5104C362.961 14.4339 362.977 14.3503 362.973 14.2664C362.981 14.1795 362.968 14.092 362.936 14.011C362.903 13.9299 362.852 13.8576 362.787 13.7998C362.619 13.6966 362.423 13.6499 362.227 13.6664H361.507V14.8664ZM367 16.3464H365.36L365.013 17.3331H364.24L365.853 13.0664H366.52L368.067 17.3331H367.293L367 16.3464ZM365.56 15.7464H366.8L366.173 13.9731L365.56 15.7464ZM371.933 17.3331H371.187L369.293 14.3064V17.3331H368.547V13.0664H369.293L371.2 16.1064V13.0664H371.933V17.3331ZM374.027 15.4931L373.547 15.9998V17.3331H372.813V13.0664H373.547V15.0664L373.96 14.5598L375.213 13.0664H376.107L374.52 14.9598L376.2 17.3331H375.32L374.027 15.4931ZM377.373 17.3331H376.64V13.0664H377.373V17.3331ZM381.667 17.3331H380.933L379 14.3064V17.3331H378.253V13.0664H379L380.907 16.1064V13.0664H381.667V17.3331ZM385.813 16.7731C385.652 16.9899 385.429 17.1527 385.173 17.2398C384.875 17.3464 384.557 17.3962 384.24 17.3864C383.909 17.3926 383.581 17.3096 383.293 17.1464C383.012 16.9883 382.788 16.7458 382.653 16.4531C382.499 16.1238 382.421 15.7635 382.427 15.3998V15.0664C382.388 14.5235 382.555 13.9859 382.893 13.5598C383.056 13.3682 383.261 13.2184 383.493 13.1233C383.725 13.0281 383.977 12.9903 384.227 13.0131C384.635 12.9859 385.037 13.1093 385.36 13.3598C385.653 13.6196 385.835 13.9827 385.867 14.3731H385.147C385.139 14.2627 385.108 14.155 385.059 14.0563C385.008 13.9575 384.939 13.8696 384.855 13.7978C384.771 13.7259 384.672 13.6715 384.567 13.6375C384.461 13.6035 384.351 13.5907 384.24 13.5998C384.096 13.5926 383.952 13.6218 383.821 13.6847C383.691 13.7476 383.577 13.8422 383.493 13.9598C383.299 14.2755 383.201 14.642 383.213 15.0131V15.3464C383.195 15.7242 383.297 16.0979 383.507 16.4131C383.601 16.5375 383.725 16.6374 383.867 16.7047C384.008 16.7719 384.164 16.8044 384.32 16.7998C384.465 16.8156 384.613 16.8014 384.753 16.7578C384.893 16.7143 385.023 16.6423 385.133 16.5464V15.7064H384.253V15.1464H385.867L385.813 16.7731Z" fill="#4E4E4E"/>
<path d="M352.107 5.33337C352.448 5.35049 352.771 5.49849 353.007 5.74671C353.243 5.99492 353.373 6.32433 353.373 6.66671V8.00004C354.191 8.08015 354.949 8.46441 355.497 9.07676C356.045 9.68911 356.344 10.4849 356.333 11.3067V14.7734C356.333 15.1971 356.249 15.6167 356.088 16.0082C355.925 16.3996 355.688 16.7554 355.388 17.055C355.089 17.3546 354.733 17.5923 354.341 17.7544C353.951 17.9166 353.531 18 353.107 18C352.683 18 352.264 17.9166 351.872 17.7544C351.48 17.5923 351.125 17.3546 350.825 17.055C350.525 16.7554 350.288 16.3996 350.125 16.0082C349.964 15.6167 349.88 15.1971 349.88 14.7734V11.3067C349.869 10.4891 350.164 9.69675 350.707 9.08504C351.249 8.47335 352 8.08639 352.813 8.00004V6.66671C352.833 6.57895 352.833 6.4878 352.813 6.40004C352.785 6.30887 352.735 6.22625 352.667 6.16004C352.603 6.09456 352.525 6.04441 352.44 6.01337C352.348 5.99505 352.252 5.99505 352.16 6.01337C352.065 6.01331 351.971 6.03243 351.883 6.0696C351.796 6.10677 351.716 6.16121 351.651 6.22969C351.585 6.29816 351.533 6.37924 351.499 6.46808C351.465 6.55692 351.449 6.65168 351.453 6.74671V7.04004C351.453 7.38241 351.323 7.71183 351.087 7.96004C350.851 8.20825 350.528 8.35625 350.187 8.37337C349.847 8.35296 349.528 8.20352 349.295 7.95565C349.063 7.70779 348.933 7.38023 348.933 7.04004C348.921 6.99187 348.921 6.94155 348.933 6.89337C348.957 6.84829 348.995 6.81125 349.04 6.78671C349.084 6.7748 349.129 6.7748 349.173 6.78671C349.221 6.773 349.272 6.773 349.32 6.78671C349.361 6.81491 349.395 6.85272 349.419 6.89687C349.441 6.941 349.453 6.99016 349.453 7.04004C349.44 7.14007 349.447 7.24191 349.476 7.33868C349.505 7.43545 349.555 7.52493 349.62 7.60107C349.687 7.67721 349.769 7.73825 349.86 7.78008C349.952 7.82191 350.052 7.84355 350.153 7.84355C350.255 7.84355 350.355 7.82191 350.447 7.78008C350.537 7.73825 350.62 7.67721 350.687 7.60107C350.752 7.52493 350.801 7.43545 350.831 7.33868C350.86 7.24191 350.867 7.14007 350.853 7.04004V6.66671C350.853 6.32652 350.983 5.99896 351.215 5.75109C351.448 5.50323 351.767 5.35379 352.107 5.33337ZM353.093 9.33337C353.041 9.31781 352.985 9.31781 352.933 9.33337C352.88 9.35647 352.831 9.38797 352.787 9.42671C352.751 9.46792 352.72 9.51259 352.693 9.56004C352.687 9.61764 352.687 9.67577 352.693 9.73337V11.3067C352.692 11.3639 352.701 11.4208 352.721 11.4741C352.743 11.5274 352.773 11.576 352.813 11.6171C352.853 11.6581 352.901 11.6907 352.953 11.713C353.007 11.7353 353.063 11.7467 353.12 11.7467H353.28L353.413 11.6534C353.456 11.6132 353.488 11.5627 353.507 11.5067C353.52 11.4542 353.52 11.3993 353.507 11.3467V9.86671C353.52 9.80963 353.52 9.75045 353.507 9.69337C353.485 9.643 353.453 9.59761 353.413 9.56004L353.28 9.46671C353.228 9.45471 353.173 9.45471 353.12 9.46671L353.093 9.33337Z" fill="black"/>
<path d="M335.893 0.893188H295.893C295.54 0.893188 295.2 1.03366 294.951 1.28371C294.7 1.53376 294.56 1.87291 294.56 2.22652V21.7732C294.56 22.1268 294.7 22.466 294.951 22.716C295.2 22.9661 295.54 23.1065 295.893 23.1065H335.893C336.247 23.1065 336.585 22.9661 336.836 22.716C337.087 22.466 337.227 22.1268 337.227 21.7732V2.22652C337.227 1.87291 337.087 1.53376 336.836 1.28371C336.585 1.03366 336.247 0.893188 335.893 0.893188Z" fill="white" stroke="#E0E0E0" stroke-width="0.67"/>
<path opacity="0.94" fill-rule="evenodd" clip-rule="evenodd" d="M300.787 14.1868C300.787 14.1868 300.973 13.3602 301.48 11.5202C301.88 10.0936 302.267 8.76022 302.32 8.56022L302.44 8.18689H304.027C305.88 8.18689 306.16 8.18689 306.467 8.38689C306.987 8.65356 307.133 9.06689 306.96 9.72022C306.813 10.3065 306.445 10.8132 305.933 11.1336C305.827 11.2136 305.72 11.3069 305.72 11.3336C305.72 11.3602 305.72 11.4669 305.893 11.5736C305.989 11.6516 306.071 11.7465 306.133 11.8536C306.227 12.1894 306.227 12.5443 306.133 12.8802C306.068 13.1611 306.024 13.4463 306 13.7335V14.0935H305.227C304.956 14.1271 304.683 14.1271 304.413 14.0935C304.333 14.0135 304.347 13.8268 304.413 13.2802C304.48 12.7336 304.56 12.4536 304.413 12.3069C304.267 12.1602 304.12 12.0669 303.56 12.0536C303 12.0402 303.04 12.0536 302.973 12.0536C302.907 12.0536 302.773 12.3869 302.52 13.3069L302.307 14.0802H301.667C301.396 14.0955 301.124 14.0955 300.853 14.0802L300.787 14.1868ZM304.787 10.8269C305.16 10.7202 305.307 10.4936 305.307 10.0402C305.332 9.94418 305.332 9.84293 305.307 9.74689C305.2 9.62689 304.867 9.57356 304.24 9.61356H303.693L303.613 9.88022C303.513 10.1651 303.447 10.4603 303.413 10.7602C303.413 10.8269 303.413 10.8536 303.573 10.8802C304.019 10.9108 304.467 10.8839 304.907 10.8002L304.787 10.8269ZM307.36 14.3068C307.14 14.2328 306.957 14.0747 306.853 13.8668C306.693 13.5202 306.853 12.7336 307.4 10.8402C307.533 10.3869 307.64 10.0136 307.64 10.0002C307.64 10.0002 307.813 10.0002 308.293 10.0002C308.515 9.97758 308.739 9.97758 308.96 10.0002H309.067L308.96 10.3469C308.72 11.2002 308.467 12.2269 308.427 12.5602C308.387 12.8936 308.427 12.9336 308.427 13.0269C308.427 13.1202 308.933 13.2936 309.267 13.1202C309.6 12.9469 309.72 12.7602 310.36 10.6002C310.395 10.3997 310.472 10.2089 310.587 10.0402L310.707 9.92022H311.333C311.813 9.92022 311.96 9.92022 311.973 9.92022C311.987 9.92022 311.2 12.8802 310.867 14.0135V14.2002H309.533C309.548 14.1315 309.571 14.0644 309.6 14.0002C309.733 13.6268 309.6 13.6002 309.067 14.0002C308.755 14.2595 308.365 14.4052 307.96 14.4135C307.767 14.4527 307.567 14.4527 307.373 14.4135L307.36 14.3068ZM311.827 14.1868C312.019 13.1798 312.277 12.1865 312.6 11.2136L313.44 8.26689H314.773C316.52 8.26689 316.88 8.26689 317.213 8.48022C317.445 8.57218 317.639 8.74181 317.76 8.96022C317.863 9.191 317.916 9.44086 317.916 9.69356C317.916 9.94625 317.863 10.1961 317.76 10.4269C317.635 10.8477 317.407 11.231 317.097 11.5426C316.788 11.8543 316.407 12.0848 315.987 12.2136C315.683 12.264 315.375 12.2952 315.067 12.3069C313.827 12.3869 313.907 12.3069 313.84 12.5336C313.773 12.7602 313.68 13.0269 313.56 13.4402L313.347 14.2002H312.573C312.307 14.2152 312.04 14.2152 311.773 14.2002L311.827 14.1868ZM315.44 11.0136C315.593 11.0132 315.745 10.9723 315.879 10.8951C316.012 10.8179 316.123 10.707 316.2 10.5736C316.269 10.4659 316.312 10.3436 316.327 10.2163C316.34 10.089 316.324 9.9603 316.28 9.84022C316.16 9.65356 315.987 9.61356 315.333 9.61356C315.12 9.59504 314.907 9.59504 314.693 9.61356C314.556 10.0231 314.449 10.442 314.373 10.8669C314.363 10.9062 314.363 10.9476 314.373 10.9869C314.719 11.0268 315.068 11.0268 315.413 10.9869L315.44 11.0136ZM317.72 14.3202C317.253 14.1202 317.133 13.8002 317.28 13.1602C317.507 12.2536 317.973 11.9602 319.6 11.6936C320.587 11.5202 320.827 11.4002 320.933 11.0536C321.04 10.7069 320.773 10.6669 320.333 10.6669C320.212 10.6568 320.091 10.6743 319.977 10.7182C319.864 10.7621 319.763 10.8312 319.68 10.9202L319.48 11.0802H319C318.4 11.0802 318.213 11.0802 318.213 10.9869C318.311 10.7405 318.467 10.5211 318.667 10.3469C318.924 10.1261 319.229 9.97064 319.56 9.89356C320.337 9.68962 321.155 9.68962 321.933 9.89356C322.152 9.98968 322.333 10.1532 322.453 10.3602C322.547 10.5336 322.52 10.7069 322.08 12.3736C321.88 13.2002 321.707 13.9335 321.707 14.0268V14.1735H321.213H320.533H320.347L320.267 13.9868C320.16 13.7602 320.16 13.7602 319.653 13.9868C319.289 14.1774 318.889 14.2866 318.48 14.3068C318.259 14.3423 318.032 14.3146 317.827 14.2268L317.72 14.3202ZM319.88 13.4002C320.041 13.2969 320.177 13.16 320.281 12.9989C320.385 12.8379 320.452 12.6564 320.48 12.4669V12.3069H320.227C319.841 12.3637 319.468 12.4806 319.12 12.6536C319.036 12.7058 318.964 12.7737 318.907 12.8536C318.86 12.9447 318.832 13.0446 318.827 13.1469C318.827 13.3335 318.827 13.3868 318.987 13.4402C319.28 13.5115 319.587 13.5115 319.88 13.4402V13.4002ZM322.093 16.0668C321.933 16.0668 321.933 15.9602 322.093 15.5335C322.253 15.1068 322.227 14.9602 322.6 14.9068C322.973 14.8535 323.173 14.7602 323.267 14.5868C323.392 13.5908 323.392 12.5829 323.267 11.5869C323.228 11.0231 323.228 10.4573 323.267 9.89356C323.267 9.89356 323.493 9.89356 324.027 9.89356H324.733V11.2269C324.705 11.6709 324.705 12.1162 324.733 12.5602C324.813 12.6269 325.08 12.1869 326.187 10.1602L326.333 9.86689H327C327.213 9.85034 327.427 9.85034 327.64 9.86689C327.64 9.86689 326.707 11.5869 325.747 13.2002C324.413 15.5068 324.133 15.8668 323.493 16.0002C323.052 16.0699 322.605 16.0922 322.16 16.0668H322.093Z" fill="#2A2C83"/>
<path fill-rule="evenodd" clip-rule="evenodd" d="M328.053 15.5598L329.92 8.7865L331.707 12.2932L328.053 15.5598Z" fill="#097A44"/>
<path fill-rule="evenodd" clip-rule="evenodd" d="M326.88 15.5865L328.76 8.81311L330.547 12.3198L326.88 15.5865Z" fill="#F46F20"/>
<path d="M286.24 1.33337H247.76C247.323 1.33685 246.904 1.51217 246.595 1.82148C246.285 2.13079 246.111 2.54929 246.107 2.98671V21.0134C246.111 21.4508 246.285 21.8692 246.595 22.1786C246.904 22.4879 247.323 22.6632 247.76 22.6667H286.24C286.677 22.6632 287.096 22.4879 287.405 22.1786C287.715 21.8692 287.889 21.4508 287.893 21.0134V2.98671C287.889 2.54929 287.715 2.13079 287.405 1.82148C287.096 1.51217 286.677 1.33685 286.24 1.33337Z" fill="white"/>
<path d="M260.933 22.6667H286.267C286.484 22.6684 286.699 22.6274 286.899 22.5458C287.099 22.464 287.281 22.3435 287.435 22.1911C287.589 22.0386 287.711 21.8572 287.795 21.6574C287.877 21.4575 287.92 21.2432 287.92 21.0267V13.3334C287.92 13.3334 278.4 19.7867 260.96 22.6667H260.933Z" fill="#F58220"/>
<path fill-rule="evenodd" clip-rule="evenodd" d="M252.413 11.2534C252.037 11.5549 251.56 11.6983 251.08 11.6534H250.813V8.41335H251.08C251.317 8.38891 251.557 8.41167 251.787 8.48031C252.015 8.54897 252.228 8.66214 252.413 8.81335C252.585 8.96453 252.724 9.15113 252.819 9.3605C252.913 9.56986 252.961 9.79707 252.96 10.0267C252.961 10.2583 252.913 10.4875 252.819 10.6991C252.725 10.9106 252.587 11.0996 252.413 11.2534ZM251.267 7.58669H249.813V12.48H251.253C251.907 12.5121 252.551 12.3087 253.067 11.9067C253.349 11.6812 253.576 11.3952 253.733 11.0698C253.891 10.7444 253.972 10.3879 253.973 10.0267C253.971 9.68747 253.899 9.35243 253.76 9.0425C253.623 8.73257 253.421 8.45441 253.172 8.22541C252.921 7.99641 252.627 7.8215 252.305 7.71159C251.985 7.6017 251.644 7.55918 251.307 7.58669H251.267ZM254.44 7.58669H255.413V12.48H254.44V7.58669ZM257.827 9.45335C257.24 9.25335 257.067 9.10669 257.067 8.84002C257.067 8.57335 257.373 8.30669 257.8 8.30669C257.953 8.30805 258.105 8.34343 258.243 8.41029C258.381 8.47714 258.503 8.57382 258.6 8.69335L259.107 8.04002C258.695 7.68809 258.168 7.49847 257.627 7.50669C257.241 7.47711 256.86 7.60053 256.565 7.85014C256.272 8.09975 256.087 8.45543 256.053 8.84002C256.053 9.50669 256.36 9.85335 257.293 10.1734C257.528 10.2473 257.755 10.3409 257.973 10.4534C258.06 10.5068 258.133 10.5799 258.187 10.6667C258.237 10.7562 258.265 10.8571 258.267 10.96C258.265 11.0564 258.244 11.1514 258.204 11.2392C258.164 11.327 258.108 11.4058 258.036 11.4708C257.965 11.5357 257.881 11.5854 257.791 11.6168C257.699 11.6482 257.603 11.6606 257.507 11.6534C257.281 11.6561 257.06 11.5961 256.867 11.48C256.677 11.3642 256.525 11.1979 256.427 11L255.787 11.6C255.973 11.8958 256.233 12.1377 256.543 12.3014C256.851 12.4652 257.197 12.5452 257.547 12.5334C257.769 12.5518 257.993 12.5238 258.205 12.451C258.416 12.3783 258.611 12.2624 258.775 12.1107C258.939 11.959 259.069 11.7748 259.159 11.5698C259.248 11.3649 259.293 11.1436 259.293 10.92C259.293 10.1467 258.947 9.78669 257.827 9.38669V9.45335ZM259.6 10.0267C259.601 10.3715 259.672 10.7125 259.808 11.0294C259.944 11.3463 260.143 11.6326 260.391 11.8714C260.64 12.1102 260.933 12.2966 261.256 12.4195C261.579 12.5423 261.921 12.5992 262.267 12.5867C262.697 12.5906 263.123 12.4899 263.507 12.2934V11.1734C263.356 11.3421 263.171 11.4769 262.964 11.5688C262.757 11.6607 262.533 11.7077 262.307 11.7067C262.083 11.716 261.86 11.679 261.651 11.598C261.441 11.5171 261.252 11.3939 261.093 11.2362C260.935 11.0785 260.809 10.8897 260.727 10.6815C260.644 10.4734 260.605 10.2505 260.613 10.0267C260.609 9.80734 260.649 9.58947 260.731 9.38579C260.813 9.18211 260.933 8.9967 261.088 8.84033C261.241 8.68397 261.425 8.55979 261.628 8.47505C261.829 8.3903 262.047 8.34666 262.267 8.34669C262.5 8.34753 262.731 8.3965 262.944 8.49058C263.157 8.58465 263.348 8.72177 263.507 8.89335V7.77335C263.132 7.57799 262.716 7.47729 262.293 7.48002C261.601 7.47241 260.935 7.73375 260.432 8.2089C259.929 8.68403 259.631 9.33582 259.6 10.0267ZM271.493 10.8667L270.16 7.58669H269.08L271.227 12.6H271.76L273.947 7.58669H272.88L271.547 10.8667H271.493ZM274.373 12.48H277.173V11.6534H275.36V10.32H277.107V9.49335H275.36V8.41335H277.173V7.58669H274.373V12.48ZM279.093 9.81335H278.813V8.36002H279.12C279.733 8.36002 280.067 8.60002 280.067 9.08002C280.067 9.56002 279.733 9.84002 279.093 9.84002V9.81335ZM281.08 9.00002C281.08 8.08002 280.427 7.56002 279.293 7.56002H277.827V12.48H278.813V10.5067H278.947L280.28 12.48H281.493L279.933 10.4134C280.253 10.3681 280.547 10.2078 280.757 9.96254C280.968 9.71722 281.083 9.40357 281.08 9.08002V9.00002Z" fill="#1A1919"/>
<path fill-rule="evenodd" clip-rule="evenodd" d="M269.213 10.0397C269.213 10.747 268.932 11.4252 268.432 11.9253C267.932 12.4254 267.255 12.7064 266.547 12.7064C265.84 12.7064 265.161 12.4254 264.661 11.9253C264.161 11.4252 263.88 10.747 263.88 10.0397C263.88 9.33246 264.161 8.65418 264.661 8.15409C265.161 7.65399 265.84 7.37305 266.547 7.37305C267.255 7.37305 267.932 7.65399 268.432 8.15409C268.932 8.65418 269.213 9.33246 269.213 10.0397Z" fill="#F58220"/>
<path d="M238.107 0.893188H198.107C197.753 0.893188 197.415 1.03366 197.164 1.28371C196.913 1.53376 196.773 1.87291 196.773 2.22652V21.7732C196.773 22.1268 196.913 22.466 197.164 22.716C197.415 22.9661 197.753 23.1065 198.107 23.1065H238.107C238.46 23.1065 238.8 22.9661 239.049 22.716C239.3 22.466 239.44 22.1268 239.44 21.7732V2.22652C239.44 1.87291 239.3 1.53376 239.049 1.28371C238.8 1.03366 238.46 0.893188 238.107 0.893188Z" fill="white" stroke="#E0E0E0" stroke-width="0.67"/>
<path fill-rule="evenodd" clip-rule="evenodd" d="M214.067 5.33337H222.213C223.981 5.33337 225.677 6.03575 226.927 7.286C228.177 8.53624 228.88 10.2319 228.88 12C228.88 13.3192 228.488 14.6087 227.755 15.7052C227.021 16.8018 225.979 17.656 224.76 18.16C223.948 18.4939 223.077 18.666 222.2 18.6667H214.067V5.33337Z" fill="#184977"/>
<path d="M214.067 18.0002C215.251 17.987 216.404 17.6241 217.381 16.9568C218.36 16.2896 219.119 15.348 219.563 14.2505C220.007 13.1531 220.116 11.9488 219.876 10.7894C219.637 9.62991 219.061 8.56705 218.219 7.7346C217.377 6.90213 216.308 6.33728 215.147 6.11112C213.984 5.88496 212.781 6.00761 211.689 6.46363C210.596 6.91965 209.663 7.68865 209.007 8.67385C208.351 9.65905 208 10.8164 208 12.0002C208.004 12.7928 208.163 13.5769 208.471 14.3076C208.777 15.0384 209.225 15.7013 209.789 16.2586C210.352 16.816 211.02 17.2568 211.755 17.5556C212.488 17.8544 213.275 18.0056 214.067 18.0002Z" fill="white" stroke="#184977"/>
<path fill-rule="evenodd" clip-rule="evenodd" d="M216.76 12C216.761 11.3547 216.572 10.7235 216.213 10.1867C215.855 9.65271 215.344 9.23917 214.747 9V15C215.344 14.7608 215.855 14.3473 216.213 13.8133C216.572 13.2765 216.761 12.6453 216.76 12ZM213.4 15V9C212.799 9.23813 212.283 9.65148 211.919 10.1864C211.556 10.7214 211.361 11.3532 211.361 12C211.361 12.6468 211.556 13.2786 211.919 13.8136C212.283 14.3485 212.799 14.7619 213.4 15Z" fill="#184977"/>
<path d="M189.227 0.893188H149.227C148.873 0.893188 148.533 1.03366 148.284 1.28371C148.033 1.53376 147.893 1.87291 147.893 2.22652V21.7732C147.893 22.1268 148.033 22.466 148.284 22.716C148.533 22.9661 148.873 23.1065 149.227 23.1065H189.227C189.58 23.1065 189.919 22.9661 190.169 22.716C190.42 22.466 190.56 22.1268 190.56 21.7732V2.22652C190.56 1.87291 190.42 1.53376 190.169 1.28371C189.919 1.03366 189.58 0.893188 189.227 0.893188Z" fill="white" stroke="#E0E0E0" stroke-width="0.67"/>
<path d="M172.053 15.5866L171.68 15.1333V15.5866H170.453V14.8C170.296 14.8788 170.123 14.9198 169.947 14.92H169.507V15.5866H167.667L167.333 15.1466L167 15.5866H163.947V12.68H167L167.333 13.1066L167.667 12.68H178.867V2.66663H160.333V10.4933L161.027 8.85329H162.227L162.627 9.75996V8.85329H164.12L164.36 9.51996L164.587 8.85329H171.253V9.18663C171.524 8.96569 171.864 8.84761 172.213 8.85329H174.347L174.747 9.75996V8.85329H176.013L176.333 9.33329V8.85329H177.667V11.76H176.333L176 11.24V11.76H174.16L173.973 11.32H173.48L173.293 11.76H172.16C171.825 11.7768 171.497 11.6674 171.24 11.4533V11.76H169.36L168.987 11.3066V11.76H162L161.827 11.32H161.32L161.133 11.76H160.333V21.2133H178.88V15.3733C178.675 15.5213 178.427 15.5964 178.173 15.5866H172.053Z" fill="#0079C1"/>
<path d="M178.893 13.0403L178.68 13.5336L177.64 13.3202C177.619 13.3114 177.596 13.3069 177.573 13.3069C177.551 13.3069 177.528 13.3114 177.507 13.3202C177.495 13.3593 177.495 13.4012 177.507 13.4403C177.507 13.4897 177.527 13.5372 177.561 13.5723C177.596 13.6072 177.644 13.6269 177.693 13.6269H178.2C178.64 13.6269 178.893 13.8536 178.893 14.2536C178.912 14.346 178.912 14.4412 178.893 14.5336C178.856 14.6265 178.796 14.7089 178.72 14.7736C178.648 14.8397 178.564 14.8904 178.473 14.9225C178.381 14.9547 178.284 14.9675 178.187 14.9603H177.053V14.4669H178.28C178.288 14.4455 178.288 14.4217 178.28 14.4003C178.287 14.374 178.287 14.3465 178.28 14.3203H178.213H177.613C177.525 14.3393 177.435 14.3393 177.347 14.3203C177.261 14.2944 177.184 14.2487 177.12 14.1869C177.052 14.1256 177.001 14.0475 176.973 13.9603C176.955 13.8769 176.955 13.7903 176.973 13.7069C176.973 13.6096 176.996 13.5136 177.04 13.4269C177.077 13.3375 177.132 13.256 177.2 13.1869C177.273 13.1206 177.359 13.0706 177.453 13.0403C177.545 13.0204 177.641 13.0204 177.733 13.0403H178.893Z" fill="#0079C1"/>
<path d="M140.333 0.893188H100.333C99.9798 0.893188 99.6406 1.03366 99.3906 1.28371C99.1406 1.53376 99 1.87291 99 2.22652V21.7732C99 22.1268 99.1406 22.466 99.3906 22.716C99.6406 22.9661 99.9798 23.1065 100.333 23.1065H140.333C140.687 23.1065 141.027 22.9661 141.276 22.716C141.527 22.466 141.667 22.1268 141.667 21.7732V2.22652C141.667 1.87291 141.527 1.53376 141.276 1.28371C141.027 1.03366 140.687 0.893188 140.333 0.893188Z" fill="white" stroke="#E0E0E0" stroke-width="0.67"/>
<path d="M115.613 18.6667C116.932 18.6667 118.221 18.2758 119.317 17.5431C120.413 16.8106 121.268 15.7694 121.773 14.5512C122.277 13.3331 122.409 11.9927 122.152 10.6994C121.895 9.40624 121.26 8.21834 120.327 7.286C119.395 6.35365 118.207 5.7187 116.914 5.46148C115.621 5.20424 114.28 5.33626 113.062 5.84084C111.844 6.34542 110.803 7.19992 110.07 8.29624C109.338 9.39257 108.947 10.6815 108.947 12C108.947 13.7682 109.649 15.4639 110.899 16.714C112.149 17.9643 113.845 18.6667 115.613 18.6667Z" fill="#007BDB"/>
<path d="M125.053 18.6668C126.368 18.6511 127.649 18.2467 128.735 17.5047C129.821 16.7625 130.663 15.7159 131.155 14.4964C131.647 13.277 131.768 11.9391 131.502 10.6512C131.236 9.36334 130.595 8.18295 129.659 7.25858C128.724 6.33422 127.536 5.70718 126.245 5.45636C124.954 5.20554 123.617 5.34215 122.404 5.849C121.19 6.35586 120.154 7.2103 119.425 8.30483C118.696 9.39935 118.307 10.6851 118.307 12.0002C118.307 12.8824 118.482 13.7559 118.822 14.57C119.162 15.3841 119.66 16.1227 120.287 16.7427C120.915 17.3628 121.659 17.8523 122.477 18.1825C123.296 18.5128 124.171 18.6775 125.053 18.6668Z" fill="#E42B00"/>
<path fill-rule="evenodd" clip-rule="evenodd" d="M120.333 16.7732C121.529 15.4569 122.243 13.7744 122.36 11.9999C122.243 10.2255 121.529 8.54288 120.333 7.22656C119.678 7.83415 119.158 8.5736 118.809 9.3963C118.46 10.219 118.289 11.1063 118.307 11.9999C118.291 12.8931 118.463 13.7797 118.813 14.602C119.162 15.4244 119.68 16.1641 120.333 16.7732Z" fill="#1740CE"/>
<path d="M91.4402 0.893188H51.4402C51.0866 0.893188 50.7474 1.03366 50.4974 1.28371C50.2472 1.53376 50.1068 1.87291 50.1068 2.22652V21.7732C50.1068 22.1268 50.2472 22.466 50.4974 22.716C50.7474 22.9661 51.0866 23.1065 51.4402 23.1065H91.4402C91.7938 23.1065 92.1328 22.9661 92.383 22.716C92.633 22.466 92.7735 22.1268 92.7735 21.7732V2.22652C92.7735 1.87291 92.633 1.53376 92.383 1.28371C92.1328 1.03366 91.7938 0.893188 91.4402 0.893188Z" fill="white" stroke="#E0E0E0" stroke-width="0.67"/>
<path d="M66.7336 18.6668C68.0487 18.6511 69.3296 18.2467 70.4154 17.5047C71.5012 16.7625 72.3432 15.7159 72.8355 14.4964C73.3279 13.277 73.4486 11.9391 73.1823 10.6512C72.9162 9.36334 72.275 8.18295 71.3395 7.25858C70.404 6.33422 69.2162 5.70718 67.9251 5.45636C66.6342 5.20554 65.2979 5.34215 64.0843 5.849C62.8708 6.35586 61.8343 7.2103 61.1052 8.30483C60.3762 9.39935 59.9871 10.6851 59.987 12.0002C59.987 12.8824 60.162 13.7559 60.502 14.57C60.842 15.3841 61.3403 16.1227 61.9678 16.7427C62.5954 17.3628 63.3398 17.8523 64.1579 18.1825C64.976 18.5128 65.8515 18.6775 66.7336 18.6668Z" fill="#CC0000"/>
<path d="M76.1602 18.6667C77.4787 18.6667 78.7676 18.2758 79.864 17.5431C80.9603 16.8106 81.8148 15.7694 82.3194 14.5512C82.824 13.3331 82.956 11.9927 82.6987 10.6994C82.4415 9.40624 81.8066 8.21834 80.8743 7.286C79.9419 6.35365 78.754 5.7187 77.4608 5.46148C76.1676 5.20424 74.8271 5.33626 73.609 5.84084C72.3908 6.34542 71.3496 7.19992 70.6171 8.29624C69.8846 9.39257 69.4935 10.6815 69.4935 12C69.4935 13.7682 70.1959 15.4639 71.4462 16.714C72.6964 17.9643 74.392 18.6667 76.1602 18.6667Z" fill="#FF9900"/>
<path fill-rule="evenodd" clip-rule="evenodd" d="M71.4399 16.7732C72.6356 15.4569 73.35 13.7744 73.4666 11.9999C73.35 10.2255 72.6356 8.54288 71.4399 7.22656C70.7875 7.83587 70.271 8.57594 69.924 9.39846C69.5771 10.221 69.4076 11.1074 69.4266 11.9999C69.4102 12.892 69.5808 13.7777 69.9275 14.5999C70.2743 15.422 70.7895 16.1624 71.4399 16.7732Z" fill="#F16D27"/>
<path d="M42.5599 0.893188H2.55993C2.20632 0.893188 1.86717 1.03366 1.61712 1.28371C1.36708 1.53376 1.2266 1.87291 1.2266 2.22652V21.7732C1.2266 22.1268 1.36708 22.466 1.61712 22.716C1.86717 22.9661 2.20632 23.1065 2.55993 23.1065H42.5599C42.9135 23.1065 43.2527 22.9661 43.5027 22.716C43.7528 22.466 43.8932 22.1268 43.8932 21.7732V2.22652C43.8932 1.87291 43.7528 1.53376 43.5027 1.28371C43.2527 1.03366 42.9135 0.893188 42.5599 0.893188Z" fill="white" stroke="#E0E0E0" stroke-width="0.67"/>
<path d="M19 7.73328L15.3334 16.48H12.9067L11.1067 9.49328C11.0855 9.3296 11.0245 9.1736 10.9293 9.03883C10.834 8.90405 10.7073 8.79459 10.56 8.71995C9.84961 8.39091 9.10195 8.14915 8.33337 7.99995V7.73328H12.24C12.4915 7.73703 12.7331 7.83177 12.92 7.99995C13.1069 8.16805 13.2334 8.39292 13.28 8.63995L14.2267 13.7067L16.5867 7.73328H19ZM28.3334 13.6267C28.3334 11.3066 25.1467 11.1866 25.16 10.1466C25.16 9.83995 25.4667 9.50661 26.12 9.42661C26.8792 9.35143 27.6446 9.48513 28.3334 9.81328L28.7467 7.99995C28.0736 7.74491 27.3599 7.61389 26.64 7.61328C24.4134 7.61328 22.8267 8.79995 22.8134 10.5066C22.8134 11.7599 23.9334 12.4666 24.8 12.8799C25.6667 13.2933 25.9734 13.5867 25.9734 13.9733C25.9734 14.56 25.2667 14.8133 24.64 14.8267C23.8311 14.8448 23.0315 14.6517 22.32 14.2667L21.9067 16.1867C22.7108 16.4959 23.5651 16.6541 24.4267 16.6533C26.8 16.6533 28.36 15.48 28.36 13.6667L28.3334 13.6267ZM34.24 16.4667H36.3334L34.5067 7.73328H32.5734C32.3688 7.72936 32.1682 7.79001 32 7.90661C31.8242 8.01633 31.6884 8.18005 31.6134 8.37328L28.2134 16.48H30.5867L31.0667 15.1467H33.9734L34.24 16.4667ZM31.72 13.3333L32.9067 10.0533L33.5867 13.3333H31.72ZM22.2 7.73328L20.3334 16.48H18.0667L19.9334 7.73328H22.2Z" fill="#1A1F71"/>
</g>
<defs>
<clipPath id="clip0_3488_2546">
<rect width="502.667" height="24" fill="white" transform="translate(0.333374)"/>
</clipPath>
</defs>
</svg>
