<svg width="30" height="30" viewBox="0 0 30 30" fill="none" xmlns="http://www.w3.org/2000/svg">
<g clip-path="url(#clip0_3488_2496)">
<path d="M29.6969 15C29.6969 6.71573 23.1847 0 15.1515 0C7.11824 0 0.606018 6.71573 0.606018 15C0.606018 23.2843 7.11824 30 15.1515 30C23.1847 30 29.6969 23.2843 29.6969 15Z" fill="#37B1E2"/>
<path d="M24.2424 8.44399C24.2424 8.44399 23.6697 10.1803 22.606 11.2552C23.9151 19.5234 14.9151 25.5591 7.87878 20.8463C9.67876 20.9289 11.4788 20.3501 12.7878 19.1926C8.69697 17.9524 6.65151 13.0742 8.69697 9.27081C10.4969 11.4205 13.2788 12.6608 16.0606 12.5781C15.3242 9.10544 19.3333 7.12108 21.7879 9.43614C22.6879 9.43614 24.2424 8.44399 24.2424 8.44399Z" stroke="white" stroke-width="1.5" stroke-linecap="round" stroke-linejoin="round"/>
</g>
<defs>
<clipPath id="clip0_3488_2496">
<rect width="30" height="30" fill="white"/>
</clipPath>
</defs>
</svg>
