<svg width="21" height="22" viewBox="0 0 21 22" fill="none" xmlns="http://www.w3.org/2000/svg">
<path d="M15.0678 11.888C14.9491 11.888 14.8315 11.866 14.7151 11.8218C14.5987 11.7777 14.4981 11.7041 14.4131 11.6011L9.89894 7.08694C9.79591 7.00194 9.72232 6.89959 9.67817 6.77989C9.63403 6.66017 9.61197 6.54056 9.61197 6.42106C9.61197 6.29749 9.63405 6.17889 9.67822 6.06524C9.7224 5.9516 9.79597 5.84127 9.89894 5.73424L14.4131 1.22606C14.4981 1.13571 14.6 1.0643 14.719 1.01184C14.8379 0.959369 14.9567 0.933136 15.0753 0.933136C15.1979 0.933136 15.3167 0.959461 15.4315 1.01211C15.5463 1.06476 15.6577 1.13608 15.7658 1.22606L20.2739 5.73424C20.3639 5.84227 20.4352 5.95479 20.4879 6.07181C20.5405 6.18884 20.5669 6.30871 20.5669 6.43141C20.5669 6.55001 20.5406 6.66767 20.4882 6.78439C20.4357 6.90109 20.3643 7.00194 20.2739 7.08694L15.7658 11.6011C15.6576 11.704 15.545 11.7776 15.4278 11.8218C15.3107 11.866 15.1907 11.888 15.0678 11.888ZM1.08752 10.3277C0.808598 10.3277 0.577907 10.2361 0.39544 10.0528C0.212973 9.86954 0.121748 9.64324 0.121765 9.37391V3.00271C0.121765 2.73336 0.212998 2.50705 0.395465 2.32379C0.577932 2.14054 0.808623 2.04891 1.08754 2.04891H7.44677C7.7217 2.04891 7.9504 2.14054 8.13286 2.32379C8.31533 2.50705 8.40657 2.73336 8.40657 3.00271V9.37391C8.40657 9.64324 8.31533 9.86954 8.13286 10.0528C7.9504 10.2361 7.7217 10.3277 7.44677 10.3277H1.08752ZM12.1451 21.3783C11.8758 21.3783 11.6495 21.287 11.4662 21.1046C11.2829 20.9221 11.1913 20.6914 11.1913 20.4125V14.0723C11.1913 13.7973 11.2829 13.5687 11.4662 13.3862C11.6495 13.2037 11.8758 13.1125 12.1451 13.1125H18.4973C18.7666 13.1125 18.9929 13.2037 19.1762 13.3862C19.3595 13.5687 19.4511 13.7973 19.4511 14.0723V20.4125C19.4511 20.6914 19.3595 20.9221 19.1762 21.1046C18.9929 21.287 18.7666 21.3783 18.4973 21.3783H12.1451ZM1.08752 21.3783C0.808598 21.3783 0.577907 21.287 0.39544 21.1046C0.212973 20.9221 0.121748 20.6914 0.121765 20.4125V14.0533C0.121765 13.7783 0.212998 13.5496 0.395465 13.3672C0.577932 13.1847 0.808623 13.0935 1.08754 13.0935H7.44677C7.7217 13.0935 7.9504 13.1847 8.13286 13.3672C8.31533 13.5496 8.40657 13.7783 8.40657 14.0533V20.4125C8.40657 20.6914 8.31533 20.9221 8.13286 21.1046C7.9504 21.287 7.7217 21.3783 7.44677 21.3783H1.08752ZM2.06034 8.39509H6.46794V3.98151H2.06034V8.39509ZM15.1489 9.63151L18.2853 6.50106L15.1489 3.35869L12.0185 6.50106L15.1489 9.63151ZM13.1239 19.4397H17.5185V15.0511H13.1239V19.4397ZM2.06034 19.4397H6.46794V15.0321H2.06034V19.4397Z" fill="#F25822"/>
</svg>
